<svg xmlns="http://www.w3.org/2000/svg" width="2200" height="1600" viewBox="0 0 2200 1600">
  <defs>
    <style>
      .bg { fill: #0f1020; }
      .panel { fill: #16192b; stroke: #8b5cf6; stroke-width: 2.2; rx: 18; ry: 18; }
      .head { fill: #221a3b; }
      .title { fill: #f8fafc; font: 700 42px Inter, Arial, sans-serif; }
      .meta { fill: #a78bfa; font: 600 15px Inter, Arial, sans-serif; letter-spacing: 1px; }
      .name { fill: #ffffff; font: 700 25px Inter, Arial, sans-serif; }
      .field { fill: #dbe4f0; font: 500 18px Consolas, "Courier New", monospace; }
      .pk { fill: #fbbf24; font-weight: 700; }
      .fk { fill: #38bdf8; font-weight: 700; }
      .rel { stroke: #c4b5fd; stroke-width: 3; fill: none; stroke-linecap: round; stroke-linejoin: round; }
      .label { fill: #cbd5e1; font: 600 16px Inter, Arial, sans-serif; }
    </style>
  </defs>

  <rect class="bg" width="2200" height="1600"/>
  <text x="70" y="80" class="title">Diagrama entidad-relación completo</text>
  <text x="70" y="114" class="meta">Modelo real extraído de prisma/schema.prisma</text>

  <!-- User -->
  <g transform="translate(70,170)">
    <rect class="panel" width="420" height="352"/>
    <rect class="head" width="420" height="54" rx="18" ry="18"/>
    <text x="22" y="35" class="name">User</text>
    <text x="24" y="88" class="field"><tspan class="pk">PK</tspan> id : Int</text>
    <text x="24" y="116" class="field">email : String @unique</text>
    <text x="24" y="144" class="field">passwordHash : String</text>
    <text x="24" y="172" class="field">role : Role</text>
    <text x="24" y="200" class="field">createdAt : DateTime</text>
    <text x="24" y="228" class="field"><tspan class="fk">FK</tspan> customerId : Int?</text>
    <text x="24" y="256" class="field">tickets : Ticket[]</text>
    <text x="24" y="284" class="field">messages : TicketMessage[]</text>
    <text x="24" y="312" class="field">payments : Payment[]</text>
  </g>

  <!-- Customer -->
  <g transform="translate(670,170)">
    <rect class="panel" width="430" height="340"/>
    <rect class="head" width="430" height="54" rx="18" ry="18"/>
    <text x="22" y="35" class="name">Customer</text>
    <text x="24" y="88" class="field"><tspan class="pk">PK</tspan> id : Int</text>
    <text x="24" y="116" class="field">name : String</text>
    <text x="24" y="144" class="field">industry : String</text>
    <text x="24" y="172" class="field">region : String</text>
    <text x="24" y="200" class="field">securityTier : String</text>
    <text x="24" y="228" class="field">createdAt : DateTime</text>
    <text x="24" y="256" class="field"><tspan class="fk">FK</tspan> primaryServiceId : Int?</text>
    <text x="24" y="284" class="field">users / assets / incidents</text>
  </g>

  <!-- Service -->
  <g transform="translate(1270,170)">
    <rect class="panel" width="420" height="324"/>
    <rect class="head" width="420" height="54" rx="18" ry="18"/>
    <text x="22" y="35" class="name">Service</text>
    <text x="24" y="88" class="field"><tspan class="pk">PK</tspan> id : Int</text>
    <text x="24" y="116" class="field">name : String @unique</text>
    <text x="24" y="144" class="field">description : String</text>
    <text x="24" y="172" class="field">price : Float</text>
    <text x="24" y="200" class="field">active : Boolean</text>
    <text x="24" y="228" class="field">category : String</text>
    <text x="24" y="256" class="field">tier : String</text>
    <text x="24" y="284" class="field">slaHours : Int</text>
  </g>

  <!-- SecurityEvent -->
  <g transform="translate(1760,170)">
    <rect class="panel" width="370" height="300"/>
    <rect class="head" width="370" height="54" rx="18" ry="18"/>
    <text x="22" y="35" class="name">SecurityEvent</text>
    <text x="24" y="88" class="field"><tspan class="pk">PK</tspan> id : Int</text>
    <text x="24" y="116" class="field">type : String</text>
    <text x="24" y="144" class="field">severity : String</text>
    <text x="24" y="172" class="field">sourceIp : String</text>
    <text x="24" y="200" class="field">endpoint : String</text>
    <text x="24" y="228" class="field">payload : String</text>
    <text x="24" y="256" class="field">action / timestamp / metadata</text>
  </g>

  <!-- Asset -->
  <g transform="translate(670,640)">
    <rect class="panel" width="430" height="340"/>
    <rect class="head" width="430" height="54" rx="18" ry="18"/>
    <text x="22" y="35" class="name">Asset</text>
    <text x="24" y="88" class="field"><tspan class="pk">PK</tspan> id : Int</text>
    <text x="24" y="116" class="field"><tspan class="fk">FK</tspan> customerId : Int</text>
    <text x="24" y="144" class="field">hostname : String</text>
    <text x="24" y="172" class="field">assetType : String</text>
    <text x="24" y="200" class="field">environment : String</text>
    <text x="24" y="228" class="field">criticality : AssetCriticality</text>
    <text x="24" y="256" class="field">region : String</text>
    <text x="24" y="284" class="field">exposureScore : Int</text>
    <text x="24" y="312" class="field">createdAt : DateTime</text>
  </g>

  <!-- Incident -->
  <g transform="translate(1270,600)">
    <rect class="panel" width="470" height="424"/>
    <rect class="head" width="470" height="54" rx="18" ry="18"/>
    <text x="22" y="35" class="name">Incident</text>
    <text x="24" y="88" class="field"><tspan class="pk">PK</tspan> id : Int</text>
    <text x="24" y="116" class="field"><tspan class="fk">FK</tspan> customerId : Int</text>
    <text x="24" y="144" class="field"><tspan class="fk">FK</tspan> assetId : Int</text>
    <text x="24" y="172" class="field"><tspan class="fk">FK</tspan> analystId : Int?</text>
    <text x="24" y="200" class="field">title : String</text>
    <text x="24" y="228" class="field">vector : String</text>
    <text x="24" y="256" class="field">severity : IncidentSeverity</text>
    <text x="24" y="284" class="field">status : IncidentStatus</text>
    <text x="24" y="312" class="field">sourceIp : String</text>
    <text x="24" y="340" class="field">sourceCountry : String</text>
    <text x="24" y="368" class="field">attackSurface : String</text>
    <text x="24" y="396" class="field">timelineSlot / createdAt / updatedAt</text>
  </g>

  <!-- Ticket -->
  <g transform="translate(70,1110)">
    <rect class="panel" width="420" height="288"/>
    <rect class="head" width="420" height="54" rx="18" ry="18"/>
    <text x="22" y="35" class="name">Ticket</text>
    <text x="24" y="88" class="field"><tspan class="pk">PK</tspan> id : Int</text>
    <text x="24" y="116" class="field"><tspan class="fk">FK</tspan> userId : Int</text>
    <text x="24" y="144" class="field">subject : String</text>
    <text x="24" y="172" class="field">status : String</text>
    <text x="24" y="200" class="field">priority : String</text>
    <text x="24" y="228" class="field">createdAt : DateTime</text>
    <text x="24" y="256" class="field">messages : TicketMessage[]</text>
  </g>

  <!-- TicketMessage -->
  <g transform="translate(670,1110)">
    <rect class="panel" width="430" height="300"/>
    <rect class="head" width="430" height="54" rx="18" ry="18"/>
    <text x="22" y="35" class="name">TicketMessage</text>
    <text x="24" y="88" class="field"><tspan class="pk">PK</tspan> id : Int</text>
    <text x="24" y="116" class="field"><tspan class="fk">FK</tspan> ticketId : Int</text>
    <text x="24" y="144" class="field"><tspan class="fk">FK</tspan> senderId : Int</text>
    <text x="24" y="172" class="field">content : String</text>
    <text x="24" y="200" class="field">createdAt : DateTime</text>
    <text x="24" y="228" class="field">ticket : Ticket</text>
    <text x="24" y="256" class="field">sender : User</text>
  </g>

  <!-- Payment -->
  <g transform="translate(1270,1110)">
    <rect class="panel" width="420" height="316"/>
    <rect class="head" width="420" height="54" rx="18" ry="18"/>
    <text x="22" y="35" class="name">Payment</text>
    <text x="24" y="88" class="field"><tspan class="pk">PK</tspan> id : Int</text>
    <text x="24" y="116" class="field"><tspan class="fk">FK</tspan> userId : Int</text>
    <text x="24" y="144" class="field">amount : Float</text>
    <text x="24" y="172" class="field">currency : String</text>
    <text x="24" y="200" class="field">status : String</text>
    <text x="24" y="228" class="field">last4 : String</text>
    <text x="24" y="256" class="field">brand : String</text>
    <text x="24" y="284" class="field">transactionId : String @unique</text>
  </g>

  <!-- Relation lanes -->
  <path class="rel" d="M490 346 L580 346 L580 282 L670 282"/>
  <text x="522" y="330" class="label">customerId</text>

  <path class="rel" d="M1100 330 L1185 330 L1185 282 L1270 282"/>
  <text x="1126" y="314" class="label">primaryServiceId</text>

  <path class="rel" d="M885 510 L885 575 L885 575 L885 640"/>
  <text x="901" y="580" class="label">customerId</text>

  <path class="rel" d="M1100 760 L1185 760 L1185 760 L1270 760"/>
  <text x="1128" y="744" class="label">customerId</text>

  <path class="rel" d="M1100 820 L1185 820 L1185 820 L1270 820"/>
  <text x="1138" y="804" class="label">assetId</text>

  <!-- User -> Incident through upper middle lane -->
  <path class="rel" d="M490 400 L560 400 L560 560 L1505 560 L1505 600"/>
  <text x="586" y="546" class="label">analystId</text>

  <!-- User -> Ticket through left gutter -->
  <path class="rel" d="M160 522 L40 522 L40 1080 L280 1080 L280 1110"/>
  <text x="56" y="1066" class="label">userId</text>

  <!-- Ticket -> TicketMessage through center lower lane -->
  <path class="rel" d="M490 1254 L590 1254 L590 1254 L670 1254"/>
  <text x="522" y="1238" class="label">ticketId</text>

  <!-- User -> TicketMessage through left and bottom gutters -->
  <path class="rel" d="M70 430 L30 430 L30 1450 L885 1450 L885 1410"/>
  <text x="56" y="1432" class="label">senderId</text>

  <!-- User -> Payment through bottom gutter -->
  <path class="rel" d="M490 462 L560 462 L560 1490 L1480 1490 L1480 1426"/>
  <text x="590" y="1472" class="label">userId</text>
</svg>
