<svg xmlns="http://www.w3.org/2000/svg" width="1280" height="600" viewBox="0 0 1280 600">
  <rect width="1280" height="600" rx="18" fill="#0b1020"/>
  <rect x="24" y="24" width="1232" height="552" rx="14" fill="#11182d" stroke="#27324d"/>
  <circle cx="56" cy="54" r="8" fill="#ff5f57"/><circle cx="82" cy="54" r="8" fill="#febc2e"/><circle cx="108" cy="54" r="8" fill="#28c840"/>
  <text x="150" y="60" fill="#94a3b8" font-family="Consolas, 'Courier New', monospace" font-size="22">docker-compose.yml</text>
  <g font-family="Consolas, 'Courier New', monospace" font-size="23">
    <text x="54" y="118" fill="#475569">1</text><text x="90" y="118" fill="#cbd5e1">services:</text>
    <text x="54" y="164" fill="#475569">2</text><text x="126" y="164" fill="#fca5a5">frontend:</text><text x="286" y="164" fill="#e2e8f0"> build: frontend-php/Dockerfile</text>
    <text x="54" y="210" fill="#475569">3</text><text x="162" y="210" fill="#e2e8f0">ports: </text><text x="246" y="210" fill="#86efac">"8000:80"</text>
    <text x="54" y="256" fill="#475569">4</text><text x="126" y="256" fill="#fca5a5">backend:</text><text x="286" y="256" fill="#e2e8f0"> build: sofia-backend/docker/Dockerfile</text>
    <text x="54" y="302" fill="#475569">5</text><text x="162" y="302" fill="#e2e8f0">env: APP_MODE, DATABASE_URL, PORT</text>
    <text x="54" y="348" fill="#475569">6</text><text x="162" y="348" fill="#e2e8f0">ports: </text><text x="246" y="348" fill="#86efac">"8001:8001"</text>
    <text x="54" y="394" fill="#475569">7</text><text x="126" y="394" fill="#fca5a5">postgres:</text><text x="306" y="394" fill="#e2e8f0"> image: postgres:15</text>
    <text x="54" y="440" fill="#475569">8</text><text x="162" y="440" fill="#e2e8f0">ports: </text><text x="246" y="440" fill="#86efac">"5432:5432"</text>
    <text x="54" y="486" fill="#475569">9</text><text x="126" y="486" fill="#fca5a5">grafana:</text><text x="286" y="486" fill="#e2e8f0"> image: grafana/grafana:11.1.0</text>
    <text x="54" y="532" fill="#475569">10</text><text x="174" y="532" fill="#e2e8f0">ports: </text><text x="258" y="532" fill="#86efac">"3000:3000"</text>
  </g>
</svg>
