<svg xmlns="http://www.w3.org/2000/svg" viewBox="0 0 64 64" role="img" aria-labelledby="title desc">
  <title id="title">Sofia Solutions favicon</title>
  <desc id="desc">Shield S logo favicon.</desc>
  <defs>
    <linearGradient id="g" x1="0%" y1="0%" x2="100%" y2="100%">
      <stop offset="0%" stop-color="#1b1642" />
      <stop offset="100%" stop-color="#8b5cf6" />
    </linearGradient>
  </defs>
  <path d="M32 5c-3 0-5 1-7 3L19 16c-2 2-3 4-3 7v8c0 2 1 4 3 6l6 5c2 1 3 4 3 6v7c0 2 1 4 3 6l5 4c2 2 5 2 7 0l5-4c2-2 3-4 3-6v-7c0-2 1-5 3-6l6-5c2-2 3-4 3-6v-8c0-3-1-5-3-7l-6-8c-2-2-4-3-7-3z" fill="url(#g)"/>
  <path d="M32 15c-8 0-14 6-14 14 0 6 4 12 10 14v5c0 2 1 4 4 4s4-2 4-4v-5c6-2 10-8 10-14 0-8-6-14-14-14zm0 6c5 0 8 4 8 8 0 4-3 8-7 9v6h-2v-6c-4-1-7-5-7-9 0-4 4-8 8-8z" fill="#b8abff"/>
  <path d="M26 32h6" stroke="#56e6ff" stroke-width="2.2" stroke-linecap="round"/>
  <path d="M34 25h6" stroke="#a78bfa" stroke-width="2.2" stroke-linecap="round"/>
  <path d="M36 36h6" stroke="#56e6ff" stroke-width="2.2" stroke-linecap="round"/>
</svg>
