<svg xmlns="http://www.w3.org/2000/svg" viewBox="0 0 1200 360" role="img" aria-labelledby="title desc">
  <title id="title">Sofia Solutions logo</title>
  <desc id="desc">Professional shield logo with circuit S and Sofia Solutions wordmark.</desc>
  <defs>
    <linearGradient id="shieldFill" x1="0%" y1="0%" x2="100%" y2="100%">
      <stop offset="0%" stop-color="#1b1642" />
      <stop offset="55%" stop-color="#4f3b9a" />
      <stop offset="100%" stop-color="#8b5cf6" />
    </linearGradient>
    <linearGradient id="accentFill" x1="0%" y1="0%" x2="100%" y2="100%">
      <stop offset="0%" stop-color="#6b4c8a" />
      <stop offset="100%" stop-color="#a78bfa" />
    </linearGradient>
    <filter id="glow" x="-40%" y="-40%" width="180%" height="180%">
      <feGaussianBlur stdDeviation="10" result="blur" />
      <feColorMatrix
        in="blur"
        type="matrix"
        values="1 0 0 0 0.37  0 1 0 0 0.28  0 0 1 0 0.90  0 0 0 0.75 0"
      />
    </filter>
    <filter id="textGlow" x="-20%" y="-50%" width="140%" height="200%">
      <feGaussianBlur stdDeviation="2" result="blur" />
      <feColorMatrix in="blur" type="matrix" values="1 0 0 0 0.28  0 1 0 0 0.18  0 0 1 0 0.55  0 0 0 0.45 0" />
    </filter>
  </defs>
  <g fill="none" fill-rule="evenodd">
    <g transform="translate(110 60)">
      <circle cx="96" cy="122" r="112" fill="#6b4c8a" opacity=".08" filter="url(#glow)" />
      <path
        d="M96 4c-12 0-21 4-28 12L44 44c-7 8-11 18-11 29v74c0 17 8 32 22 41l18 12v35c0 16 9 31 23 39l17 10c8 5 18 5 26 0l17-10c14-8 23-23 23-39v-35l18-12c14-9 22-24 22-41V73c0-11-4-21-11-29L124 16c-7-8-16-12-28-12z"
        fill="url(#shieldFill)"
      />
      <path
        d="M96 22c-7 0-13 2-18 8L60 52c-4 5-6 11-6 18v70c0 11 5 20 14 26l13 9v48c0 10 6 19 14 24l10 6c6 4 13 4 19 0l10-6c8-5 14-14 14-24v-48l13-9c9-6 14-15 14-26V70c0-7-2-13-6-18L114 30c-5-6-11-8-18-8z"
        stroke="#0c0a22"
        stroke-width="3.5"
        opacity=".72"
      />
      <path
        d="M97 70c-25 0-46 21-46 46 0 19 11 36 27 43v12c0 8 6 14 14 14s14-6 14-14v-12c16-7 27-24 27-43 0-25-20-46-46-46zm0 19c15 0 27 12 27 27 0 14-8 25-20 31v14H90v-14c-12-6-20-17-20-31 0-15 12-27 27-27z"
        fill="#b8abff"
      />
      <path d="M88 108c0-8 4-14 9-19 5 5 8 11 8 18 0 8-4 15-9 20-5-5-8-12-8-19z" fill="#1a0a2e" opacity=".95" />
      <path d="M74 116h18" stroke="#a78bfa" stroke-width="3.5" stroke-linecap="round" opacity=".85" />
      <path d="M95 84h18" stroke="#56e6ff" stroke-width="3.5" stroke-linecap="round" opacity=".7" />
      <path d="M110 124h16" stroke="#56e6ff" stroke-width="3.5" stroke-linecap="round" opacity=".7" />
      <circle cx="70" cy="116" r="4.5" fill="#56e6ff" />
      <circle cx="114" cy="84" r="4.5" fill="#a78bfa" />
      <circle cx="130" cy="124" r="4.5" fill="#56e6ff" />
      <path d="M56 116h10" stroke="#56e6ff" stroke-width="3" stroke-linecap="round" opacity=".55" />
      <path d="M124 84h10" stroke="#a78bfa" stroke-width="3" stroke-linecap="round" opacity=".55" />
      <path d="M136 124h10" stroke="#56e6ff" stroke-width="3" stroke-linecap="round" opacity=".55" />
    </g>
    <g transform="translate(360 120)">
      <text
        x="0"
        y="0"
        fill="#120f2f"
        filter="url(#textGlow)"
        font-family="Poppins, Inter, Arial, sans-serif"
        font-size="88"
        font-weight="600"
        letter-spacing="-1.5"
      >
        Sofia Solutions
      </text>
      <rect x="0" y="20" width="470" height="2.5" fill="#2a224c" opacity=".88" />
      <text
        x="28"
        y="76"
        fill="#2a224c"
        font-family="Inter, Arial, sans-serif"
        font-size="30"
        font-weight="400"
        letter-spacing=".2"
      >
        Your Security, Our Mission
      </text>
    </g>
  </g>
</svg>
