<svg xmlns="http://www.w3.org/2000/svg" viewBox="0 0 1200 360" role="img" aria-labelledby="title desc">
  <title id="title">Sofia Solutions logo mono</title>
  <desc id="desc">Monochrome shield logo with Sofia Solutions wordmark.</desc>
  <g fill="none" fill-rule="evenodd" stroke="#111222">
    <g transform="translate(110 60)">
      <path
        d="M96 4c-12 0-21 4-28 12L44 44c-7 8-11 18-11 29v74c0 17 8 32 22 41l18 12v35c0 16 9 31 23 39l17 10c8 5 18 5 26 0l17-10c14-8 23-23 23-39v-35l18-12c14-9 22-24 22-41V73c0-11-4-21-11-29L124 16c-7-8-16-12-28-12z"
        fill="#111222"
      />
      <path
        d="M96 22c-7 0-13 2-18 8L60 52c-4 5-6 11-6 18v70c0 11 5 20 14 26l13 9v48c0 10 6 19 14 24l10 6c6 4 13 4 19 0l10-6c8-5 14-14 14-24v-48l13-9c9-6 14-15 14-26V70c0-7-2-13-6-18L114 30c-5-6-11-8-18-8z"
        stroke-width="3.5"
        opacity=".72"
      />
      <path
        d="M97 70c-25 0-46 21-46 46 0 19 11 36 27 43v12c0 8 6 14 14 14s14-6 14-14v-12c16-7 27-24 27-43 0-25-20-46-46-46zm0 19c15 0 27 12 27 27 0 14-8 25-20 31v14H90v-14c-12-6-20-17-20-31 0-15 12-27 27-27z"
        fill="#111222"
        stroke="none"
      />
      <path d="M88 108c0-8 4-14 9-19 5 5 8 11 8 18 0 8-4 15-9 20-5-5-8-12-8-19z" fill="#111222" stroke="none" opacity=".95" />
      <path d="M74 116h18" stroke-width="3.5" stroke-linecap="round" opacity=".85" />
      <path d="M95 84h18" stroke-width="3.5" stroke-linecap="round" opacity=".7" />
      <path d="M110 124h16" stroke-width="3.5" stroke-linecap="round" opacity=".7" />
      <circle cx="70" cy="116" r="4.5" fill="#111222" />
      <circle cx="114" cy="84" r="4.5" fill="#111222" />
      <circle cx="130" cy="124" r="4.5" fill="#111222" />
    </g>
    <g transform="translate(360 120)" fill="#111222" stroke="none">
      <text x="0" y="0" font-family="Poppins, Inter, Arial, sans-serif" font-size="88" font-weight="600" letter-spacing="-1.5">
        Sofia Solutions
      </text>
      <rect x="0" y="20" width="470" height="2.5" />
      <text x="28" y="76" font-family="Inter, Arial, sans-serif" font-size="30" font-weight="400" letter-spacing=".2">
        Your Security, Our Mission
      </text>
    </g>
  </g>
</svg>
